<?xml version="1.0" encoding="utf-8"?>
<svg width="49" height="59" xmlns="http://www.w3.org/2000/svg">
  <path fill="#e7c6a4" d="M 47.125 46.64 C 48.258 46.211 48.916 45.267 48.8 44.239 C 48.533 41.836 47.145 35.516 46.028 30.436 L 46.011 30.371 C 45.451 27.821 44.755 24.665 44.745 24.338 C 44.754 24.28 45.273 15.41 42.787 5.008 L 41.983 1.324 L 23.13 0 L 22.142 0.96 L 22.297 1.122 C 22.424 1.287 22.481 1.495 22.457 1.702 C 22.404 2.249 21.909 2.885 21.017 3.542 C 20.959 3.575 13.813 7.539 9.294 12.252 C 8.948 12.717 8.51 13.22 8.002 13.8 L 7.938 13.873 C 6.38 15.649 4.443 17.859 4.069 19.899 C 3.635 22.278 0.829 27.392 0.801 27.443 L 0.749 27.563 C 0.658 27.901 0.279 29.583 1.193 30.903 C 1.77 31.738 2.713 32.223 3.996 32.344 L 4.123 32.356 L 4.249 32.319 C 7.747 31.339 11.607 24.277 12.383 22.795 C 12.722 22.605 13.38 22.315 13.82 22.345 C 13.887 22.348 13.953 22.363 14.015 22.39 C 14.16 22.457 14.257 22.648 14.303 22.96 C 14.309 22.995 14.848 26.035 13.463 30.935 C 12.875 33.01 12.242 34.88 11.573 36.86 L 11.55 36.926 C 10.432 40.231 9.279 43.635 8.219 48.272 C 7.835 51.617 9.632 52.342 10.419 52.498 C 10.544 52.522 10.669 52.538 10.796 52.547 C 12.3 52.652 13.978 51.725 14.472 50.523 C 14.722 50.178 14.974 49.39 15.79 46.77 C 18.695 37.413 20.786 32.604 22.005 32.471 C 22.615 33.333 21.645 41.01 21.175 44.728 C 20.187 52.538 19.871 55.835 20.765 56.83 C 21.243 57.908 22.243 58.528 23.463 58.468 C 24.928 58.412 26.408 57.412 26.758 56.236 C 26.925 55.675 27.173 53.817 27.598 50.581 C 28.206 45.96 29.614 35.285 30.637 33.405 C 31.544 34.749 32.282 42.813 32.602 46.315 L 32.604 46.343 C 33.185 52.717 33.373 54.123 34.05 54.533 C 35.402 55.346 36.656 55.546 37.622 55.096 C 38.578 54.653 39.183 53.662 39.421 52.153 C 39.453 51.941 39.433 51.458 39.283 48.707 L 39.28 48.643 C 39.064 44.683 38.507 34.4 39 31.593 C 39.472 32.595 40.126 34.706 40.612 36.283 C 41.672 39.695 42.987 43.94 44.591 46.188 C 44.864 46.567 45.323 46.798 45.893 46.838 C 46.313 46.861 46.733 46.794 47.125 46.64 Z" transform="matrix(-1, 0, 0, -1, 49.406891, 58.471987)"/>
</svg>