<?xml version="1.0" encoding="utf-8"?>
<svg width="48" height="48" xmlns="http://www.w3.org/2000/svg">
  <path fill="#e7c6a4" d="M 45.06 34.868 C 44.418 42.964 35.326 42.137 35.326 42.137 C 31.489 48.902 25.494 44.002 25.494 44.002 C 20.888 50.632 15.114 44.488 15.114 44.488 C 5.157 45.562 5.543 37.422 5.543 37.422 C 5.309 34.834 6.946 26.829 6.946 26.829 C 5.469 31.443 2.266 27.613 2.266 27.613 C -1.674 21.535 1.291 18.208 1.291 18.208 C 6.621 11.962 17.979 4.465 17.979 4.465 C 22.092 2.109 20.352 0.008 20.352 0.008 L 45.228 4.118 L 45.799 8.836 C 49.581 20.272 45.06 34.868 45.06 34.868 L 45.06 34.868 Z" transform="matrix(-1, 0, 0, -1, 47.528301, 47.088166)"/>
</svg>