<?xml version="1.0" encoding="utf-8"?>
<svg width="45" height="59" xmlns="http://www.w3.org/2000/svg">
  <path fill="#e7c6a4" d="M 44.042 26.848 L 43.179 27.708 C 41.117 29.762 37.746 30.208 35.229 28.768 L 29.853 25.709 L 30.973 50.211 C 30.973 52.265 29.295 53.937 27.23 53.937 C 26.784 53.937 26.355 53.858 25.957 53.715 L 26.091 55.03 C 26.091 57.107 24.386 58.797 22.293 58.797 C 20.357 58.797 18.734 57.352 18.529 55.498 L 15.079 34.748 C 15.034 34.466 14.543 34.495 14.491 34.673 L 10.416 51.308 C 9.96 52.863 8.535 53.933 6.914 53.937 C 5.796 53.937 4.757 53.436 4.061 52.562 C 3.368 51.697 3.113 50.56 3.371 49.482 L 4.163 46.132 C 3.711 46.167 3.257 46.11 2.828 45.964 C 1.221 45.435 0.235 43.817 0.502 42.146 L 2.9 28.42 C 2.9 23.005 3.853 18.997 4.654 16.59 C 5.111 15.206 5.343 13.757 5.341 12.299 C 5.341 11.015 5.162 9.737 4.807 8.503 L 2.947 2.021 C 2.843 1.655 2.917 1.261 3.145 0.956 C 3.377 0.652 3.737 0.473 4.12 0.473 L 26.09 0.473 C 26.921 0.471 27.511 1.284 27.25 2.073 C 27.237 2.104 26.217 5.242 27.183 9.51 C 28.408 10.5 32.697 13.972 34.237 15.372 C 36.783 17.687 43.758 24.84 44.054 25.144 C 44.519 25.619 44.514 26.38 44.042 26.849 L 44.042 26.848 Z" transform="matrix(-1, 0, 0, -1, 44.857935, 59.269996)"/>
</svg>