<!DOCTYPE svg PUBLIC "-//W3C//DTD SVG 1.1//EN" "http://www.w3.org/Graphics/SVG/1.1/DTD/svg11.dtd">

<!-- Uploaded to: SVG Repo, www.svgrepo.com, Transformed by: SVG Repo Mixer Tools -->
<svg fill="#e7c6a4" width="60" height="58" viewBox="0 -32 576 576" xmlns="http://www.w3.org/2000/svg" stroke="#e7c6a4">

<g id="SVGRepo_bgCarrier" stroke-width="0"/>

<g id="SVGRepo_tracerCarrier" stroke-linecap="round" stroke-linejoin="round"/>

<g id="SVGRepo_iconCarrier">

<path d="M384 480h192V363.778a95.998 95.998 0 0 0-14.833-51.263L398.127 54.368A48 48 0 0 0 357.544 32H24C10.745 32 0 42.745 0 56v16c0 30.928 25.072 56 56 56h229.981c12.844 0 21.556 13.067 16.615 24.923l-21.41 51.385A32 32 0 0 1 251.648 224H128c-35.346 0-64 28.654-64 64v8c0 13.255 10.745 24 24 24h147.406a47.995 47.995 0 0 1 25.692 7.455l111.748 70.811A24.001 24.001 0 0 1 384 418.539V480z"/>

</g>

</svg>