<?xml version="1.0" encoding="utf-8"?>
<svg width="51" height="58" xmlns="http://www.w3.org/2000/svg">
  <path fill="#e7c6a4" d="M 13.971 31.732 L 19.983 40.147 C 17.484 40.562 12.895 40.654 9.137 36.912 C 3.212 31.013 0.812 18.271 0.312 15.186 L 15.37 0.194 C 18.081 0.426 30.083 2.021 41.649 13.534 C 41.771 13.783 44.589 15.855 42.285 18.148 C 41.185 19.243 39.366 19.222 38.243 18.104 C 37.671 17.534 36.782 17.527 36.222 18.084 C 35.662 18.641 35.67 19.527 36.242 20.096 L 40.329 24.165 C 42.405 26.232 40.448 29.72 37.549 28.882 L 34.204 26.031 C 33.593 25.501 32.684 25.592 32.182 26.171 C 31.663 26.768 31.774 27.674 32.365 28.184 C 44.052 38.392 42.345 37.163 49.865 44.179 C 52.674 46.508 49.14 50.626 46.372 48.269 L 28.182 31.984 C 27.653 31.536 26.842 31.527 26.322 32.004 C 25.721 32.521 25.707 33.266 26.1 33.854 L 38.787 53.49 C 40.641 55.99 36.992 58.767 35.038 56.247 L 16.28 30.127 C 15.828 29.477 14.916 29.327 14.295 29.782 C 13.657 30.224 13.51 31.107 13.972 31.732 L 13.971 31.732 Z" transform="matrix(-1, 0, 0, -1, 51.206617, 57.434321)"/>
</svg>